<?xml version="1.0" standalone="no"?><!DOCTYPE svg PUBLIC "-//W3C//DTD SVG 1.1//EN" "http://www.w3.org/Graphics/SVG/1.1/DTD/svg11.dtd"><svg t="1657272135124" class="icon" viewBox="0 0 1024 1024" version="1.1" xmlns="http://www.w3.org/2000/svg" p-id="6434" xmlns:xlink="http://www.w3.org/1999/xlink" width="200" height="200"><defs><style type="text/css">@font-face { font-family: feedback-iconfont; src: url("//at.alicdn.com/t/font_1031158_u69w8yhxdu.woff2?t=1630033759944") format("woff2"), url("//at.alicdn.com/t/font_1031158_u69w8yhxdu.woff?t=1630033759944") format("woff"), url("//at.alicdn.com/t/font_1031158_u69w8yhxdu.ttf?t=1630033759944") format("truetype"); }
</style></defs><path d="M480 89.6c-241.066667 6.4-435.2 204.8-435.2 445.866667 0 247.466667 198.4 445.866667 448 445.866666s448-162.133333 448-433.066666c0-6.4-6.4-12.8-12.8-12.8H503.466667c-6.4 0-12.8-6.4-12.8-12.8V102.4c2.133333-6.4-4.266667-12.8-10.666667-12.8zM448 140.8v422.4c0 6.4 2.133333 10.666667 8.533333 10.666667H896c0 192-160 362.666667-403.2 362.666666S89.6 757.333333 89.6 533.333333 313.6 140.8 448 140.8zM544 42.666667c236.8 6.4 428.8 196.266667 435.2 433.066666 0 6.4-6.4 14.933333-12.8 14.933334H544c-6.4 0-10.666667-8.533333-10.666667-14.933334V53.333333c0-6.4 4.266667-10.666667 10.666667-10.666666z m38.4 46.933333H576V448h356.266667c0-149.333333-162.133333-362.666667-356.266667-358.4h6.4z" fill="#FE5669" p-id="6435"></path></svg>