<?xml version="1.0" standalone="no"?><!DOCTYPE svg PUBLIC "-//W3C//DTD SVG 1.1//EN" "http://www.w3.org/Graphics/SVG/1.1/DTD/svg11.dtd"><svg t="1657095170095" class="icon" viewBox="0 0 1025 1024" version="1.1" xmlns="http://www.w3.org/2000/svg" p-id="17551" xmlns:xlink="http://www.w3.org/1999/xlink" width="200.1953125" height="200"><defs><style type="text/css">@font-face { font-family: feedback-iconfont; src: url("//at.alicdn.com/t/font_1031158_u69w8yhxdu.woff2?t=1630033759944") format("woff2"), url("//at.alicdn.com/t/font_1031158_u69w8yhxdu.woff?t=1630033759944") format("woff"), url("//at.alicdn.com/t/font_1031158_u69w8yhxdu.ttf?t=1630033759944") format("truetype"); }
</style></defs><path d="M850.944 563.2c-96.256 0-174.592 77.824-174.592 174.592 0 96.256 77.824 174.592 174.592 174.592 96.256 0 174.592-77.824 174.592-174.592 0-96.256-77.824-174.592-174.592-174.592z m76.8 198.656h-153.6c-13.312 0-24.576-10.752-24.576-24.576 0-13.312 10.752-24.576 24.576-24.576h153.6c13.312 0 24.576 10.752 24.576 24.576s-10.752 24.576-24.576 24.576z" p-id="17552" fill="#dd6572"></path><path d="M604.16 793.088l-111.616 45.056V483.84L809.472 356.352v125.44c0 25.6 20.48 46.08 46.08 46.08s46.08-20.48 46.08-46.08V288.256c0-2.048 0-4.096-0.512-6.144v-1.536c-0.512-2.048-0.512-3.584-1.024-5.632v-0.512c-0.512-2.048-1.536-4.096-2.048-5.632 0-0.512-0.512-0.512-0.512-1.024-1.024-1.536-1.536-3.584-2.56-5.12v-0.512c-1.024-1.536-2.56-3.072-3.584-4.608l-1.024-1.024-4.096-4.096c-1.536-1.536-3.072-2.56-5.12-3.584-0.512 0-0.512-0.512-1.024-0.512-2.048-1.024-3.584-2.048-5.632-3.072L464.384 75.264c-11.264-4.608-24.064-4.608-35.84 0L27.648 245.76c-2.048 1.024-4.096 2.048-5.632 3.072-0.512 0-0.512 0.512-1.024 0.512-1.536 1.024-3.072 2.048-4.608 3.584l-0.512 0.512c-1.536 1.024-2.56 2.56-3.584 3.584l-1.024 1.024c-1.536 1.536-2.56 3.072-3.584 4.608 0 0 0 0.512-0.512 0.512-1.536 1.536-2.048 3.072-3.072 5.12 0 0.512-0.512 0.512-0.512 1.024-1.024 2.048-1.536 3.584-2.048 5.632v0.512c-0.512 1.536-1.024 3.584-1.024 5.632v1.536c0 2.048-0.512 4.096-0.512 6.144v453.12c0 18.432 11.264 35.328 28.672 42.496l400.384 164.352h1.024c1.024 0.512 2.56 1.024 3.584 1.024h1.024c1.024 0.512 2.048 0.512 3.584 1.024h1.536c1.024 0 2.048 0.512 2.56 0.512h9.216c0.512 0 1.536 0 2.048-0.512 0.512 0 1.536 0 2.048-0.512 1.024 0 2.048-0.512 2.56-0.512s1.024 0 1.536-0.512c1.024-0.512 2.048-0.512 3.072-1.024 0.512 0 1.024 0 1.024-0.512h0.512l174.08-70.144c23.552-9.728 34.816-36.352 25.6-59.904-9.728-22.528-36.352-34.304-59.904-24.576zM446.976 167.936l287.232 119.808-287.232 115.712-281.6-115.712zM91.648 356.864l308.736 126.976v353.792l-308.736-126.976z" p-id="17553" fill="#dd6572"></path></svg>