<?xml version="1.0" standalone="no"?><!DOCTYPE svg PUBLIC "-//W3C//DTD SVG 1.1//EN" "http://www.w3.org/Graphics/SVG/1.1/DTD/svg11.dtd"><svg t="1657102385589" class="icon" viewBox="0 0 1024 1024" version="1.1" xmlns="http://www.w3.org/2000/svg" p-id="1442" xmlns:xlink="http://www.w3.org/1999/xlink" width="200" height="200"><defs><style type="text/css">@font-face { font-family: feedback-iconfont; src: url("//at.alicdn.com/t/font_1031158_u69w8yhxdu.woff2?t=1630033759944") format("woff2"), url("//at.alicdn.com/t/font_1031158_u69w8yhxdu.woff?t=1630033759944") format("woff"), url("//at.alicdn.com/t/font_1031158_u69w8yhxdu.ttf?t=1630033759944") format("truetype"); }
</style></defs><path d="M220.87 293.59C288 204.09 394.53 147.91 512 147.91c162.47 0 291.13 100.69 341.47 240.78h83.91C887.04 203.85 718.97 64 511.76 64c-145.69 0-274.35 72.72-358.25 184.84L64 187.31v279.94l240.78-123.07-83.91-50.59zM719.22 674.47l89.5 61.53c-67.13 89.5-173.66 145.69-291.13 145.69-162.47 0-291.13-100.69-341.47-240.78h-89.5C136.96 825.75 305.03 960 512.24 960c145.68 0 274.35-72.72 358.25-184.84l89.5 61.53V556.75L719.22 674.47z" p-id="1443" fill="#dd6572"></path><path d="M484.03 288c-22.38 0-33.56 16.78-33.56 33.56v240.78c0 11.19 5.59 22.38 11.19 27.97 5.59 5.59 16.78 11.19 27.97 11.19h240.78c22.38 0 39.16-16.78 39.16-39.16s-16.78-39.16-39.16-39.16H528.78V327.16c0-22.38-22.37-39.16-44.75-39.16z" p-id="1444" fill="#dd6572"></path></svg>