<?xml version="1.0" standalone="no"?><!DOCTYPE svg PUBLIC "-//W3C//DTD SVG 1.1//EN" "http://www.w3.org/Graphics/SVG/1.1/DTD/svg11.dtd"><svg t="1657102528528" class="icon" viewBox="0 0 1024 1024" version="1.1" xmlns="http://www.w3.org/2000/svg" p-id="28091" xmlns:xlink="http://www.w3.org/1999/xlink" width="200" height="200"><defs><style type="text/css">@font-face { font-family: feedback-iconfont; src: url("//at.alicdn.com/t/font_1031158_u69w8yhxdu.woff2?t=1630033759944") format("woff2"), url("//at.alicdn.com/t/font_1031158_u69w8yhxdu.woff?t=1630033759944") format("woff"), url("//at.alicdn.com/t/font_1031158_u69w8yhxdu.ttf?t=1630033759944") format("truetype"); }
</style></defs><path d="M395.776 617.984c0 11.776 9.728 21.504 21.504 21.504h85.504v362.496c0 11.776 9.728 21.504 21.504 21.504h42.496c11.776 0 21.504-9.728 21.504-21.504v-362.496h85.504l3.584-0.512c4.608-0.512 8.192-3.072 11.264-6.144 8.192-8.192 8.192-22.016 0-30.208l-128-128-3.072-2.56c-8.704-5.632-19.968-4.608-27.136 2.56l-128 128-2.56 3.072c-2.56 3.584-4.096 7.68-4.096 12.288zM701.952 886.272l2.56 3.072 128 128c7.168 7.168 18.944 8.192 27.136 2.56l3.072-2.56 128-128c8.192-8.192 8.192-22.016 0-30.208-3.072-3.072-7.168-5.12-11.264-6.144l-3.584-0.512h-85.504V489.984c0-11.776-9.728-21.504-21.504-21.504h-42.496c-11.776 0-21.504 9.728-21.504 21.504v362.496h-85.504c-11.776 0-21.504 9.728-21.504 21.504 0 4.096 1.536 8.704 4.096 12.288z" p-id="28092" fill="#70bc2e"></path><path d="M358.4 853.504H163.84v-768h640v245.248h85.504V42.496c0-23.552-18.944-42.496-42.496-42.496H121.344c-23.552 0-42.496 18.944-42.496 42.496V896c0 23.552 18.944 42.496 42.496 42.496H358.4v-84.992z" p-id="28093" fill="#70bc2e"></path></svg>