<?xml version="1.0" standalone="no"?><!DOCTYPE svg PUBLIC "-//W3C//DTD SVG 1.1//EN" "http://www.w3.org/Graphics/SVG/1.1/DTD/svg11.dtd"><svg t="1656935540305" class="icon" viewBox="0 0 1024 1024" version="1.1" xmlns="http://www.w3.org/2000/svg" p-id="9957" xmlns:xlink="http://www.w3.org/1999/xlink" width="200" height="200"><defs><style type="text/css">@font-face { font-family: feedback-iconfont; src: url("//at.alicdn.com/t/font_1031158_u69w8yhxdu.woff2?t=1630033759944") format("woff2"), url("//at.alicdn.com/t/font_1031158_u69w8yhxdu.woff?t=1630033759944") format("woff"), url("//at.alicdn.com/t/font_1031158_u69w8yhxdu.ttf?t=1630033759944") format("truetype"); }
</style></defs><path d="M655.36 808.96c0-10.24-10.24-20.48-15.36-20.48h-250.88c-10.24 0-15.36 10.24-15.36 20.48v81.92h-179.2v61.44h640v-61.44h-179.2v-81.92z m256-732.16h-803.84c-30.72 0-61.44 25.6-61.44 61.44v563.2c0 30.72 25.6 61.44 61.44 61.44h803.84c30.72 0 61.44-25.6 61.44-61.44v-563.2c0-35.84-25.6-61.44-61.44-61.44z m0 599.04c0 10.24-10.24 20.48-20.48 20.48h-762.88c-10.24 0-20.48-10.24-20.48-20.48V158.72c0-10.24 10.24-20.48 20.48-20.48h762.88c10.24 0 20.48 10.24 20.48 20.48v517.12z m-204.8-35.84h107.52v-317.44h-107.52v317.44z m-174.08 0h107.52V225.28h-107.52v414.72z m-322.56 0h107.52v-122.88h-107.52v122.88z m148.48 0h107.52v-220.16H358.4v220.16z" fill="#70bc2e" p-id="9958"></path></svg>