<?xml version="1.0" standalone="no"?><!DOCTYPE svg PUBLIC "-//W3C//DTD SVG 1.1//EN" "http://www.w3.org/Graphics/SVG/1.1/DTD/svg11.dtd"><svg t="1656407777228" class="icon" viewBox="0 0 1024 1024" version="1.1" xmlns="http://www.w3.org/2000/svg" p-id="2283" xmlns:xlink="http://www.w3.org/1999/xlink" width="200" height="200"><defs><style type="text/css">@font-face { font-family: feedback-iconfont; src: url("//at.alicdn.com/t/font_1031158_u69w8yhxdu.woff2?t=1630033759944") format("woff2"), url("//at.alicdn.com/t/font_1031158_u69w8yhxdu.woff?t=1630033759944") format("woff"), url("//at.alicdn.com/t/font_1031158_u69w8yhxdu.ttf?t=1630033759944") format("truetype"); }
</style></defs><path d="M832 960H192V64h384l256 256zM576 160v160h160z m-64 224V128H256v768h512V384z" fill="#262626" p-id="2284"></path><path d="M672 736v-160h-32v192h96v-32zM601.6 673.28c-1.6-63.04-28.16-95.68-80-97.28-52.16 1.92-79.04 34.24-80.96 97.28 0.96 58.56 24.96 89.92 71.36 94.72h0.32c3.2 0.32 14.72 0.32 17.28 0H608v-32h-25.28c12.48-16.32 18.88-37.12 18.88-62.72z m-80 68.8c-28.48 0.64-42.88-22.4-42.88-68.8 0.64-45.12 14.72-67.84 42.88-67.84 27.52 0 41.6 22.72 41.92 67.84-0.32 45.44-14.4 68.16-41.92 68.8zM352 608c13.44-0.64 28.48 11.52 32 32h32c-6.08-37.12-27.84-64-64-64-35.2 1.92-55.36 19.84-57.92 54.08-0.96 27.2 12.48 45.12 40.64 53.12 11.52 3.2 20.8 6.4 27.84 10.24 8.64 3.84 13.12 10.24 13.44 19.52-0.64 11.84-11.2 22.4-24 23.04-16.64 0-28.48-6.4-32-32H288c7.04 44.8 25.28 65.28 64 64 38.72-0.64 63.04-19.2 64-56-0.64-21.76-8.64-38.08-24.96-49.28-8.96-6.08-20.48-11.2-34.56-15.04-15.68-3.84-22.72-10.24-21.76-19.52s7.36-19.52 17.28-20.16z" fill="#262626" p-id="2285"></path></svg>